# xmcd
#
# Track frame offsets: 
#        150
#        22302
#        44457
#        67677
#        87530
#        109885
#        131567
#        153130
#        178192
#        195772
#
# Disc length: 2929 seconds
#
# Revision: 0
# Processed by: cddbd v1.5.2PL0 Copyright (c) Steve Scherf et al.
# Submitted via: ExactAudioCopy v0.95a5
#
DISCID=800b6f0a
DTITLE=張清芳 - 感情生活
DYEAR=2004
DGENRE=Pop
TTITLE0=飛往你的城
TTITLE1=女人的明信片
TTITLE2=你手中的清水燒
TTITLE3=對話練習
TTITLE4=戀人的保存期限
TTITLE5=絕情書(我決定不再愛你)
TTITLE6=一個人的遊蕩
TTITLE7=秋日地鐵
TTITLE8=冰箱留言版
TTITLE9=月光魚
EXTD=
EXTT0=
EXTT1=
EXTT2=
EXTT3=
EXTT4=
EXTT5=
EXTT6=
EXTT7=
EXTT8=
EXTT9=
PLAYORDER=
